<svg width="20" height="19" viewBox="0 0 20 19" fill="none" xmlns="http://www.w3.org/2000/svg">
<path d="M3.54074 7.68287L2.85811 8.50279H3.925H18.75C18.9489 8.50279 19.1397 8.5818 19.2803 8.72246C19.421 8.86311 19.5 9.05387 19.5 9.25279C19.5 9.4517 19.421 9.64246 19.2803 9.78312C19.1397 9.92377 18.9489 10.0028 18.75 10.0028H3.925H2.85811L3.54074 10.8227L8.07825 16.2727L8.07838 16.2729C8.14153 16.3487 8.18911 16.4362 8.21839 16.5304C8.24768 16.6246 8.25809 16.7236 8.24903 16.8218C8.23998 16.9201 8.21163 17.0156 8.16562 17.1028C8.1196 17.1901 8.05682 17.2674 7.98088 17.3304C7.84596 17.4421 7.67617 17.5031 7.50098 17.5028L7.49919 17.5028C7.389 17.503 7.28013 17.4789 7.18032 17.4322C7.08051 17.3855 6.99221 17.3174 6.92169 17.2328L6.92161 17.2327L0.685863 9.7498C0.662082 9.71471 0.64058 9.67811 0.621494 9.64025L0.565982 9.53011L0.553311 9.52106L0.552485 9.51897C0.518958 9.43416 0.501184 9.34395 0.500024 9.25279C0.500768 9.19435 0.508336 9.13632 0.522503 9.07984C0.559716 9.03643 0.594847 8.98433 0.622142 8.92194C0.641807 8.87699 0.654256 8.83249 0.662107 8.79256C0.669751 8.78013 0.677672 8.76786 0.685863 8.75577L6.92161 1.27288L6.92202 1.27239C7.04943 1.1191 7.23252 1.0227 7.431 1.0044C7.62948 0.986098 7.82711 1.0474 7.9804 1.17481C8.13369 1.30222 8.23009 1.4853 8.24839 1.68379C8.26668 1.88216 8.20546 2.07968 8.07819 2.23294C8.07812 2.23302 8.07805 2.2331 8.07798 2.23318L3.54074 7.68287ZM0.465619 9.45842C0.463445 9.45687 0.463785 9.45695 0.466046 9.45872L0.465619 9.45842Z" fill="#F53838" stroke="black"/>
</svg>
