<svg width="14" height="10" viewBox="0 0 14 10" fill="none" xmlns="http://www.w3.org/2000/svg">
<path d="M5.61776 9.27956C5.4865 9.27983 5.35647 9.25417 5.23514 9.20406C5.11382 9.15395 5.00358 9.08038 4.91076 8.98756L0.668763 4.74456C0.57319 4.65238 0.496931 4.54209 0.444438 4.42013C0.391944 4.29816 0.364267 4.16696 0.36302 4.03418C0.361773 3.9014 0.386983 3.76971 0.437176 3.64678C0.48737 3.52385 0.561544 3.41214 0.655369 3.31819C0.749195 3.22423 0.860793 3.1499 0.983652 3.09953C1.10651 3.04916 1.23817 3.02377 1.37095 3.02482C1.50373 3.02588 1.63497 3.05337 1.75701 3.1057C1.87905 3.15802 1.98945 3.23412 2.08176 3.32956L5.61676 6.86456L11.9818 0.501562C12.1693 0.313921 12.4236 0.208453 12.6889 0.208359C12.9542 0.208265 13.2086 0.313553 13.3963 0.501061C13.5839 0.68857 13.6894 0.942938 13.6895 1.20821C13.6896 1.47348 13.5843 1.72792 13.3968 1.91556L6.32476 8.98756C6.23194 9.08038 6.12171 9.15395 6.00038 9.20406C5.87906 9.25417 5.74903 9.27983 5.61776 9.27956V9.27956Z" fill="#2FAB73"/>
</svg>
